HIERARCHY
ROOT Hips
{
	OFFSET -0.001795 -0.223333 0.028219
	CHANNELS 6 Xposition Yposition Zposition Zrotation Yrotation Xrotation 
	JOINT LeftUpLeg
	{
		OFFSET 0.069520 -0.091406 -0.006815
		CHANNELS 3 Zrotation Yrotation Xrotation
		JOINT LeftLeg
		{
			OFFSET 0.034277 -0.375199 -0.004496
			CHANNELS 3 Zrotation Yrotation Xrotation
			JOINT LeftFoot
			{
				OFFSET -0.013596 -0.397961 -0.043693
				CHANNELS 3 Zrotation Yrotation Xrotation
				JOINT LeftToe
				{
					OFFSET 0.026358 -0.055791 0.119288
					CHANNELS 3 Zrotation Yrotation Xrotation
					End Site
					{
						OFFSET 0.000000 0.000000 0.000000
					}
				}
			}
		}
	}
	JOINT RightUpLeg
	{
		OFFSET -0.067670 -0.090522 -0.004320
		CHANNELS 3 Zrotation Yrotation Xrotation
		JOINT RightLeg
		{
			OFFSET -0.038290 -0.382569 -0.008850
			CHANNELS 3 Zrotation Yrotation Xrotation
			JOINT RightFoot
			{
				OFFSET 0.015774 -0.398415 -0.042312
				CHANNELS 3 Zrotation Yrotation Xrotation
				JOINT RightToe
				{
					OFFSET -0.025372 -0.048144 0.123348
					CHANNELS 3 Zrotation Yrotation Xrotation
					End Site
					{
						OFFSET 0.000000 0.000000 0.000000
					}
				}
			}
		}
	}
	JOINT Spine
	{
		OFFSET -0.002533 0.108963 -0.026696
		CHANNELS 3 Zrotation Yrotation Xrotation
		JOINT Spine1
		{
			OFFSET 0.005487 0.135180 0.001092
			CHANNELS 3 Zrotation Yrotation Xrotation
			JOINT Spine2
			{
				OFFSET 0.001457 0.052922 0.025425
				CHANNELS 3 Zrotation Yrotation Xrotation
				JOINT Neck
				{
					OFFSET -0.002778 0.213870 -0.042857
					CHANNELS 3 Zrotation Yrotation Xrotation
					JOINT Head
					{
						OFFSET 0.005152 0.064970 0.051349
						CHANNELS 3 Zrotation Yrotation Xrotation
						End Site
						{
							OFFSET 0.000000 0.000000 0.000000
						}
					}
				}
				JOINT LeftShoulder
				{
					OFFSET 0.078845 0.121749 -0.034090
					CHANNELS 3 Zrotation Yrotation Xrotation
					JOINT LeftArm
					{
						OFFSET 0.090977 0.030469 -0.008868
						CHANNELS 3 Zrotation Yrotation Xrotation
						JOINT LeftForeArm
						{
							OFFSET 0.259612 -0.012772 -0.027456
							CHANNELS 3 Zrotation Yrotation Xrotation
							JOINT LeftHand
							{
								OFFSET 0.249234 0.008986 -0.001171
								CHANNELS 3 Zrotation Yrotation Xrotation
								End Site
								{
									OFFSET 0.000000 0.000000 0.000000
								}
							}
						}
					}
				}
				JOINT RightShoulder
				{
					OFFSET -0.081759 0.118833 -0.038615
					CHANNELS 3 Zrotation Yrotation Xrotation
					JOINT RightArm
					{
						OFFSET -0.096012 0.032551 -0.009143
						CHANNELS 3 Zrotation Yrotation Xrotation
						JOINT RightForeArm
						{
							OFFSET -0.253742 -0.013329 -0.021401
							CHANNELS 3 Zrotation Yrotation Xrotation
							JOINT RightHand
							{
								OFFSET -0.255298 0.007772 -0.005559
								CHANNELS 3 Zrotation Yrotation Xrotation
								End Site
								{
									OFFSET 0.000000 0.000000 0.000000
								}
							}
						}
					}
				}
			}
		}
	}
}
MOTION
Frames: 18
Frame Time: 0.050000
0.000000 0.953218 0.000000 -1.346623 -5.671108 3.833635 5.176050 0.080337 2.433718 -0.863779 0.314788 -7.441640 3.590347 9.914285 12.291923 0.000000 0.000000 0.000000 -2.832478 0.216760 -1.317209 1.250428 -0.202029 -3.081009 -1.144952 -7.790778 11.709624 0.000000 0.000000 0.000000 0.615205 -0.122545 2.338800 3.898331 -0.446471 -23.432559 -1.346118 1.370062 29.183678 1.066723 0.332515 -22.028422 0.000000 0.000000 0.000000 -14.048745 5.234359 -2.879239 -55.601651 -2.182401 -8.052604 -3.342557 -18.861876 1.599489 0.000000 0.000000 0.000000 7.264752 -0.448836 -0.717326 59.089748 2.338838 -7.431747 2.517397 23.768213 1.476543 0.000000 0.000000 0.000000 
-0.000213 0.952075 -0.000378 -1.651816 -6.688999 4.314828 5.394233 0.108652 2.935009 -0.694746 0.365347 -8.983526 4.026850 10.501091 12.139808 0.000000 0.000000 0.000000 -2.605899 0.301662 -2.460608 1.023378 -0.166223 -2.443650 -0.807076 -7.220916 11.502443 0.000000 0.000000 0.000000 0.917638 -0.130797 2.215534 3.766241 -0.388384 -23.998308 -1.252834 1.749999 29.106134 0.646101 0.548256 -21.695638 0.000000 0.000000 0.000000 -14.246810 6.067598 -3.268130 -55.732746 -2.133718 -8.096332 -3.655098 -17.878957 1.570526 0.000000 0.000000 0.000000 6.777519 -0.459005 -0.705035 60.597171 1.196619 -8.218879 1.541775 25.410928 1.405909 0.000000 0.000000 0.000000 
-0.000394 0.951529 -0.000602 -1.350239 -6.225789 4.286567 5.535888 0.066244 2.289976 -1.395410 0.346042 -7.420833 3.530547 9.599639 11.284665 0.000000 0.000000 0.000000 -2.866091 0.304669 -2.431903 0.910100 -0.154375 -2.270189 -0.666471 -6.616760 10.718629 0.000000 0.000000 0.000000 0.997700 -0.132015 2.179903 3.258630 -0.246124 -24.279955 -1.218344 1.203200 29.628351 1.139691 0.199579 -22.149191 0.000000 0.000000 0.000000 -14.349454 5.827571 -3.092849 -56.346005 -1.996164 -8.271107 -2.754209 -18.147704 1.476002 0.000000 0.000000 0.000000 6.423642 0.046487 -0.485292 61.927098 1.401880 -8.354030 -0.253284 24.921767 1.019829 0.000000 0.000000 0.000000 
-0.000597 0.951566 -0.000566 -1.164977 -6.594161 4.444666 5.352322 0.080924 2.426506 -1.431341 0.362160 -7.839677 3.400679 9.394890 11.591291 0.000000 0.000000 0.000000 -3.114952 0.335649 -2.733277 1.128466 -0.169365 -2.296081 -0.409122 -6.388666 11.308538 0.000000 0.000000 0.000000 0.511017 -0.098918 1.895624 3.643799 -0.303847 -24.739445 -1.146295 1.155493 30.429502 0.805149 0.276792 -20.803550 0.000000 0.000000 0.000000 -14.460692 6.594487 -3.440550 -56.346762 -1.804907 -8.399267 -3.578009 -18.165303 1.619793 0.000000 0.000000 0.000000 5.361916 0.399809 -0.268144 62.011755 0.917008 -8.755448 1.129409 25.365984 1.311803 0.000000 0.000000 0.000000 
-0.000867 0.952080 -0.000539 -1.018501 -6.051514 4.181946 5.071000 0.088670 2.517466 -1.383938 0.349053 -7.571888 3.198143 9.062548 11.274785 0.000000 0.000000 0.000000 -3.109888 0.298542 -2.276474 0.790781 -0.154152 -2.524356 -0.573621 -6.689807 11.468248 0.000000 0.000000 0.000000 0.321386 -0.100459 2.113284 4.094773 -0.447458 -24.090706 -1.430799 1.217173 29.852646 0.898628 0.253330 -20.123614 0.000000 0.000000 0.000000 -14.391854 6.886415 -3.677497 -56.524871 -2.075999 -8.235824 -4.573590 -19.359060 1.897883 0.000000 0.000000 0.000000 4.910413 0.111662 -0.323904 62.452817 0.627219 -8.844621 1.685760 25.735890 1.467241 0.000000 0.000000 0.000000 
-0.000911 0.952439 -0.000657 -0.880188 -5.746795 4.283012 4.733786 0.080460 2.301173 -1.042344 0.321887 -7.345756 2.909169 8.625586 11.374560 0.000000 0.000000 0.000000 -3.371454 0.315543 -2.428783 0.933037 -0.159368 -2.348298 -0.429072 -6.481305 11.757969 0.000000 0.000000 0.000000 0.048212 -0.081216 1.923119 4.311707 -0.490869 -24.114553 -1.224931 1.159461 30.222834 0.975128 0.177933 -19.450375 0.000000 0.000000 0.000000 -13.904047 7.365540 -3.897619 -56.591295 -1.743301 -8.410525 -6.972585 -21.138566 2.548876 0.000000 0.000000 0.000000 4.154107 -0.207278 -0.379543 62.392394 -0.071154 -9.222150 3.043451 26.830432 1.848558 0.000000 0.000000 0.000000 
-0.000769 0.952901 -0.001223 -0.818736 -5.392818 4.145786 4.650163 0.082878 2.354872 -1.133193 0.324041 -7.299237 2.746540 8.442198 11.638714 0.000000 0.000000 0.000000 -3.228777 0.304071 -2.358689 0.637976 -0.138111 -2.319554 -0.588961 -6.770078 11.847695 0.000000 0.000000 0.000000 -0.171688 -0.086505 2.282327 4.681466 -0.579346 -24.018736 -1.276089 0.977723 30.253538 0.887815 0.218575 -19.098408 0.000000 0.000000 0.000000 -13.880900 7.782455 -4.117024 -56.640161 -1.039662 -8.739539 -9.201945 -23.558326 3.369561 0.000000 0.000000 0.000000 3.896790 -0.720433 -0.556985 61.864932 -1.288726 -9.765845 5.401529 29.599791 2.660108 0.000000 0.000000 0.000000 
-0.000502 0.953338 -0.002428 -0.849134 -5.156896 4.190384 4.639044 0.056619 1.943766 -0.960128 0.300718 -6.891813 2.750097 8.445602 11.507878 0.000000 0.000000 0.000000 -3.192157 0.339422 -2.878474 0.685808 -0.118135 -1.591728 -0.697820 -6.651643 10.999059 0.000000 0.000000 0.000000 -0.170859 -0.109352 2.870072 4.888573 -0.633726 -23.897089 -1.080381 1.016863 30.217927 0.950911 0.146534 -18.089770 0.000000 0.000000 0.000000 -13.481893 7.638213 -4.035028 -57.086786 -0.402363 -9.086292 -12.357730 -26.278149 4.576507 0.000000 0.000000 0.000000 3.814067 -1.363243 -0.790470 61.100302 -2.515555 -10.235905 9.320191 33.806792 4.268621 0.000000 0.000000 0.000000 
-0.000295 0.954118 -0.004383 -0.868564 -5.193985 4.326649 4.652913 0.036260 1.609024 -1.170625 0.310409 -6.804176 2.663383 8.315252 11.612510 0.000000 0.000000 0.000000 -3.082377 0.358835 -3.160879 0.575667 -0.109642 -1.600104 -0.818690 -6.905823 11.047908 0.000000 0.000000 0.000000 -0.202048 -0.130046 3.459766 5.422598 -0.758796 -23.877378 -1.082571 1.049870 30.376404 0.539547 0.364173 -16.897083 0.000000 0.000000 0.000000 -13.438997 8.247091 -4.342793 -57.059736 0.248642 -9.395756 -15.628397 -29.554595 6.163629 0.000000 0.000000 0.000000 3.590924 -2.351586 -1.154740 60.134426 -3.839921 -10.744925 14.338090 38.566656 6.710433 0.000000 0.000000 0.000000 
-0.000281 0.954520 -0.006826 -0.933952 -5.056986 4.718314 4.935136 -0.022067 0.732230 -1.427577 0.314158 -6.399772 2.791475 8.560514 11.746882 0.000000 0.000000 0.000000 -3.160004 0.415603 -3.891934 0.846695 -0.122555 -1.328590 -0.935002 -7.160600 11.189800 0.000000 0.000000 0.000000 -0.190569 -0.150005 3.977675 5.573813 -0.800993 -23.736389 -0.741991 1.019239 30.228104 0.416008 0.405973 -15.859574 0.000000 0.000000 0.000000 -13.177849 8.372124 -4.396566 -57.524860 0.571534 -9.576096 -18.895737 -32.600331 7.917608 0.000000 0.000000 0.000000 3.298743 -2.866832 -1.326676 59.644650 -5.252073 -11.305871 20.356550 43.305712 10.093835 0.000000 0.000000 0.000000 
-0.000365 0.954857 -0.009503 -0.758825 -4.640545 5.130263 4.855585 -0.078359 -0.190120 -1.489770 0.306408 -6.017125 2.445667 8.046220 11.832868 0.000000 0.000000 0.000000 -3.376012 0.463464 -4.507683 1.029309 -0.137799 -1.317253 -1.300542 -7.880902 11.433147 0.000000 0.000000 0.000000 -0.221857 -0.174192 4.694255 5.711205 -0.833405 -23.617176 -0.815338 0.724416 30.039674 0.187320 0.548330 -15.563989 0.000000 0.000000 0.000000 -13.483753 8.803758 -4.660900 -57.105762 0.539040 -9.482265 -22.156935 -35.768517 9.936238 0.000000 0.000000 0.000000 3.516632 -3.384667 -1.554068 59.699804 -6.343830 -11.825048 25.846136 47.864754 13.889032 0.000000 0.000000 0.000000 
-0.000478 0.955138 -0.012017 -0.680376 -3.696783 5.387450 5.027104 -0.138291 -1.111088 -1.670774 0.308108 -5.761369 2.227926 7.921127 12.452757 0.000000 0.000000 0.000000 -3.624997 0.489576 -4.900801 1.339216 -0.164887 -1.287490 -1.839296 -8.938387 11.997999 0.000000 0.000000 0.000000 -0.383190 -0.186852 5.336340 5.737804 -0.867256 -23.106739 -0.680762 0.590471 29.617649 0.061180 0.685666 -15.143336 0.000000 0.000000 0.000000 -14.110827 8.110801 -4.472413 -57.127387 -0.647715 -8.940350 -23.588441 -38.515615 11.259887 0.000000 0.000000 0.000000 4.039590 -3.364623 -1.580046 59.637168 -7.302460 -12.164127 31.692461 51.706177 18.322115 0.000000 0.000000 0.000000 
-0.000660 0.955302 -0.014248 -0.567133 -2.823679 5.607709 5.102190 -0.191564 -1.974782 -1.893889 0.308907 -5.291201 2.124195 7.864646 12.517648 0.000000 0.000000 0.000000 -3.785483 0.485636 -4.889191 1.433612 -0.185904 -1.677108 -2.210395 -9.578301 12.236641 0.000000 0.000000 0.000000 -0.312730 -0.221205 6.109438 5.676227 -0.844658 -23.018910 -0.656505 0.506293 29.425615 -0.047900 0.819875 -14.953414 0.000000 0.000000 0.000000 -14.645723 7.189777 -4.152767 -56.908903 -2.530939 -8.057041 -24.632793 -40.329370 12.179381 0.000000 0.000000 0.000000 4.444624 -2.811089 -1.373483 59.435642 -7.444559 -12.108470 36.137134 54.227660 21.973236 0.000000 0.000000 0.000000 
-0.001205 0.955408 -0.016146 -0.485556 -1.641133 5.597859 5.236631 -0.233370 -2.621962 -1.847567 0.298812 -5.212811 1.722126 7.604413 13.568852 0.000000 0.000000 0.000000 -3.797853 0.477342 -4.880401 1.519385 -0.196618 -1.672321 -2.897910 -10.790406 12.650335 0.000000 0.000000 0.000000 -0.288295 -0.254497 6.876483 5.745405 -0.888429 -22.458210 -0.769175 0.366970 29.027223 -0.419058 1.192962 -15.361642 0.000000 0.000000 0.000000 -15.616325 5.569051 -3.542553 -56.985592 -5.475471 -6.711402 -23.123312 -41.443928 11.825658 0.000000 0.000000 0.000000 5.258261 -1.672725 -0.943022 58.770020 -6.507429 -11.408242 37.329028 55.752629 23.518760 0.000000 0.000000 0.000000 
-0.002315 0.955452 -0.018147 -0.508609 -0.780319 5.662624 5.492690 -0.279959 -3.480035 -1.901430 0.287301 -4.608528 1.643756 7.649784 13.822538 0.000000 0.000000 0.000000 -3.735060 0.473967 -4.897998 1.627166 -0.206971 -1.604065 -3.346261 -11.570755 13.011628 0.000000 0.000000 0.000000 -0.540072 -0.262392 7.624719 5.576958 -0.856782 -22.148223 -0.730959 0.114807 29.008207 -0.956193 1.647013 -16.080311 0.000000 0.000000 0.000000 -16.106728 3.286169 -2.449503 -56.916748 -8.814345 -5.170659 -19.858303 -42.087403 10.626959 0.000000 0.000000 0.000000 6.006622 0.579472 -0.035390 58.614567 -3.886548 -10.111551 33.900455 55.980596 21.745546 0.000000 0.000000 0.000000 
-0.004080 0.955526 -0.020438 -0.818102 0.811925 5.751835 6.162367 -0.321153 -4.138336 -2.226518 0.303275 -4.766357 1.339636 7.522542 14.392149 0.000000 0.000000 0.000000 -3.127452 0.475418 -4.973342 1.423486 -0.192152 -1.552719 -4.162222 -12.987964 13.954597 0.000000 0.000000 0.000000 -0.719033 -0.301454 8.928797 5.158237 -0.709668 -22.333266 -0.468117 -0.230887 29.131604 -1.779034 2.359902 -17.386719 0.000000 0.000000 0.000000 -16.897976 0.416735 -1.131046 -57.171717 -13.207284 -3.131171 -15.039376 -41.894209 8.552154 0.000000 0.000000 0.000000 6.806384 3.244131 1.114881 59.245533 0.806761 -7.899969 24.843459 54.908377 16.463388 0.000000 0.000000 0.000000 
-0.006191 0.955339 -0.023500 -1.053169 1.728834 5.730683 6.881816 -0.355488 -4.985779 -2.628640 0.316386 -4.137442 1.313230 7.628785 14.503117 0.000000 0.000000 0.000000 -2.961517 0.480361 -5.074110 2.023930 -0.246538 -1.329375 -4.741440 -13.958252 14.468065 0.000000 0.000000 0.000000 -1.132991 -0.310579 10.233793 4.697079 -0.594637 -22.060583 0.037243 0.171417 29.110254 -2.065420 2.718129 -17.840989 0.000000 0.000000 0.000000 -17.488066 -2.964176 0.405823 -57.432179 -18.242009 -0.662779 -10.138678 -40.154184 6.176825 0.000000 0.000000 0.000000 6.825493 6.691340 2.655162 60.684258 6.615441 -5.000640 15.733990 52.989202 11.329824 0.000000 0.000000 0.000000 
-0.008259 0.955399 -0.027037 -1.635680 2.899071 5.591254 8.267782 -0.371305 -5.558388 -3.089761 0.335681 -3.674621 1.194768 7.718241 14.959504 0.000000 0.000000 0.000000 -2.380306 0.497740 -5.253815 2.541340 -0.295051 -0.852019 -5.723863 -15.606421 15.514150 0.000000 0.000000 0.000000 -1.563237 -0.344716 12.256898 4.326318 -0.487088 -21.926444 0.822781 0.632836 28.797524 -3.089558 3.603859 -18.468557 0.000000 0.000000 0.000000 -18.823554 -6.088798 1.716825 -57.559486 -22.555506 1.570359 -5.570736 -38.007400 4.066404 0.000000 0.000000 0.000000 7.278193 10.381858 4.349996 61.790234 14.198827 -0.835465 5.365913 48.386703 5.595137 0.000000 0.000000 0.000000 
